# xmcd
#
# Track frame offsets:
#	150
#	7600
#	33469
#	49735
#	53952
#	70451
#	90771
#	111250
#	129767
#	145670
#	160657
#	176745
#	196236
#	202921
#	213940
#	224607
#
# Disc length: 3040 seconds
# Revision: 8
# Processed by: cddbd v1.5.2PL0 Copyright (c) Steve Scherf et al.
# Submitted via: dBpowerAMP V12.0
#
DISCID=d50bde10
DTITLE=Big Joe Duskin - Big Joe Jumps Again!
DYEAR=2004
DGENRE=Blues
TTITLE0=You're Gonna Miss Me
TTITLE1=Every Day I Have the Blues
TTITLE2=Get Out of My Way
TTITLE3=Down the Road a Piece
TTITLE4=Betty and Dupree
TTITLE5=One Dirty Rat
TTITLE6=Mean and Strange
TTITLE7=Key to the Highway
TTITLE8=Sloppy Drunk Blues
TTITLE9=Beer Drinking Woman
TTITLE10=Black Mountain Blues
TTITLE11=Miss Ida B.
TTITLE12=North to Alaska
TTITLE13=The Preacher and the Devil's Music
TTITLE14=You're Gonna Miss Me (Part 2)
TTITLE15=Just a Closer Walk with Thee
EXTD=
EXTT0=
EXTT1=
EXTT2=
EXTT3=
EXTT4=
EXTT5=
EXTT6=
EXTT7=
EXTT8=
EXTT9=
EXTT10=
EXTT11=
EXTT12=
EXTT13=
EXTT14=
EXTT15=
PLAYORDER=
